<svg width="315" height="301" viewBox="0 0 315 301" fill="none" xmlns="http://www.w3.org/2000/svg">
<path d="M312 150C312 120.826 303.493 92.2858 287.52 67.8733C271.547 43.4608 248.802 24.236 222.069 12.553L192.648 79.8733C206.287 85.834 217.892 95.6427 226.041 108.098C234.191 120.554 238.531 135.115 238.531 150H312Z" fill="#FFC6FF"/>
<path d="M14.4938 122.762C9.72984 148.561 11.8156 175.158 20.5428 199.899C29.2701 224.639 44.3336 246.659 64.23 263.759L112.117 208.041C101.965 199.316 94.2799 188.082 89.8272 175.459C85.3745 162.836 84.3103 149.266 86.7409 136.103L14.4938 122.762Z" fill="#CAFFBF"/>
<path d="M133.445 2.74302C112.231 6.85666 92.1564 15.5053 74.595 28.0969C57.0335 40.6886 42.4 56.9259 31.6959 75.6976L95.5176 112.09C100.979 102.513 108.445 94.2283 117.405 87.8039C126.365 81.3795 136.607 76.9669 147.431 74.8681L133.445 2.74302Z" fill="#A0C4FF"/>
<path d="M33.052 73.3684C23.9596 88.6682 17.6626 105.464 14.4555 122.97L86.7214 136.209C88.3577 127.277 91.5705 118.708 96.2095 110.902L33.052 73.3684Z" fill="#96E8FF"/>
<path d="M307.463 186.613C310.642 173.983 312.162 160.994 311.986 147.972L238.524 148.965C238.614 155.609 237.838 162.237 236.217 168.68L307.463 186.613Z" fill="#ADDAE2"/>
<path d="M307.582 186.138C302.836 205.256 294.371 223.252 282.671 239.099C270.97 254.945 256.263 268.332 239.389 278.495C222.515 288.658 203.804 295.398 184.325 298.329C164.846 301.261 144.98 300.327 125.862 295.582L143.562 224.277C153.316 226.699 163.452 227.175 173.39 225.679C183.329 224.183 192.875 220.745 201.484 215.559C210.094 210.374 217.598 203.544 223.567 195.459C229.537 187.374 233.856 178.192 236.277 168.438L307.582 186.138Z" fill="#FFADAD"/>
<path d="M129.361 296.406C105.237 291.028 82.8155 279.772 64.0904 263.639L112.046 207.979C121.599 216.211 133.039 221.954 145.348 224.698L129.361 296.406Z" fill="#FFD6A5"/>
<path d="M132.677 2.89399C163.445 -3.23887 195.36 0.429554 223.934 13.3831L193.599 80.2967C179.021 73.6877 162.737 71.8161 147.039 74.9451L132.677 2.89399Z" fill="#BDB2FF"/>
<circle opacity="0.9" cx="245.693" cy="272.693" r="27.6932" fill="white" fill-opacity="0.92"/>
<path d="M256.504 262.476C257.25 263.221 257.25 264.421 256.504 265.154L251.591 270.067L254.269 281.674L252.488 283.467L247.588 274.083L242.662 279.009L243.117 282.128L241.765 283.467L239.543 279.451L235.514 277.215L236.852 275.851L240.01 276.318L244.898 271.431L235.514 266.492L237.307 264.712L248.914 267.389L253.827 262.476C254.534 261.744 255.797 261.744 256.504 262.476Z" fill="#FFADAD"/>
<circle opacity="0.9" cx="27.6932" cy="196.693" r="27.6932" fill="white" fill-opacity="0.92"/>
<path d="M39.1223 197.217L28.8893 186.984C28.7367 186.83 28.5551 186.708 28.3551 186.625C28.155 186.542 27.9404 186.5 27.7239 186.5H18.173C17.9543 186.5 17.7447 186.587 17.5901 186.742C17.4355 186.896 17.3486 187.106 17.3486 187.325V196.875C17.3479 197.092 17.3903 197.307 17.4733 197.507C17.5562 197.707 17.6781 197.888 17.8319 198.041L28.0649 208.274C28.218 208.427 28.3998 208.548 28.5998 208.631C28.7999 208.714 29.0143 208.757 29.2308 208.757C29.4474 208.757 29.6618 208.714 29.8618 208.631C30.0619 208.548 30.2436 208.427 30.3967 208.274L39.1223 199.548C39.2754 199.395 39.3969 199.213 39.4798 199.013C39.5626 198.813 39.6053 198.599 39.6053 198.382C39.6053 198.166 39.5626 197.951 39.4798 197.751C39.3969 197.551 39.2754 197.37 39.1223 197.217ZM22.7068 193.095C22.4622 193.095 22.2232 193.022 22.0198 192.887C21.8165 192.751 21.658 192.558 21.5644 192.332C21.4708 192.106 21.4463 191.857 21.494 191.617C21.5418 191.377 21.6595 191.157 21.8324 190.984C22.0054 190.811 22.2257 190.693 22.4656 190.646C22.7054 190.598 22.954 190.622 23.18 190.716C23.4059 190.81 23.599 190.968 23.7349 191.171C23.8708 191.375 23.9433 191.614 23.9433 191.858C23.9433 192.186 23.813 192.501 23.5811 192.733C23.3492 192.965 23.0347 193.095 22.7068 193.095Z" fill="#CAFFBF"/>
<circle opacity="0.9" cx="286.693" cy="78.6932" r="27.6932" fill="white" fill-opacity="0.92"/>
<path fill-rule="evenodd" clip-rule="evenodd" d="M282.297 71.6767V70.4868C282.297 69.3208 282.761 68.2025 283.585 67.378C284.409 66.5535 285.528 66.0903 286.694 66.0903C287.86 66.0903 288.978 66.5535 289.802 67.378C290.627 68.2025 291.09 69.3208 291.09 70.4868V71.6767C292.599 71.7224 293.523 71.8842 294.227 72.4692C295.204 73.2805 295.462 74.6522 295.977 77.3968L296.856 82.0863C297.579 85.9458 297.94 87.8755 296.886 89.1464C295.831 90.4172 293.868 90.4172 289.941 90.4172H283.446C279.519 90.4172 277.556 90.4172 276.501 89.1464C275.446 87.8755 275.809 85.9458 276.532 82.0863L277.411 77.3968C277.927 74.6534 278.183 73.2805 279.16 72.4692C279.865 71.8842 280.788 71.7224 282.297 71.6767ZM284.056 70.4868C284.056 69.7872 284.334 69.1162 284.828 68.6215C285.323 68.1268 285.994 67.8489 286.694 67.8489C287.393 67.8489 288.064 68.1268 288.559 68.6215C289.054 69.1162 289.332 69.7872 289.332 70.4868V71.6591H284.056V70.4868Z" fill="#FFC6FF"/>
</svg>
